<svg width="17" height="17" viewBox="0 0 17 17" fill="none" xmlns="http://www.w3.org/2000/svg">
<path d="M12.8602 3.77545C12.6594 3.77545 12.496 3.93884 12.496 4.13961C12.496 4.34038 12.6594 4.50377 12.8602 4.50377C13.061 4.50377 13.2244 4.34041 13.2244 4.13961C13.2244 3.93881 13.061 3.77545 12.8602 3.77545Z" fill="white"/>
<path d="M8.50013 5.2713C6.71999 5.2713 5.27173 6.71956 5.27173 8.4997C5.27173 10.2798 6.71999 11.7281 8.50013 11.7281C10.2803 11.7281 11.7286 10.2799 11.7286 8.49973C11.7286 6.71959 10.2803 5.2713 8.50013 5.2713Z" fill="white"/>
<path d="M11.888 1H5.11202C2.84465 1 1 2.84465 1 5.11205V11.888C1 14.1554 2.84465 16 5.11202 16H11.888C14.1554 16 16 14.1554 16 11.888V5.11205C16 2.84465 14.1554 1 11.888 1ZM8.5 12.6142C6.2314 12.6142 4.38581 10.7686 4.38581 8.5C4.38581 6.2314 6.23143 4.38584 8.5 4.38584C10.7686 4.38584 12.6142 6.23143 12.6142 8.5C12.6142 10.7686 10.7686 12.6142 8.5 12.6142ZM12.8603 5.38973C12.171 5.38973 11.6103 4.82898 11.6103 4.13975C11.6103 3.45051 12.171 2.88974 12.8603 2.88974C13.5495 2.88974 14.1103 3.45048 14.1103 4.13972C14.1103 4.82896 13.5495 5.38973 12.8603 5.38973Z" fill="white"/>
</svg>
