<svg width="20" height="20" viewBox="0 0 20 20" fill="none" xmlns="http://www.w3.org/2000/svg">
<path d="M13.4353 13.3161C12.5739 13.3161 11.8715 12.6069 11.8715 11.7368C11.8715 10.8668 12.5739 10.1575 13.4353 10.1575C14.2969 10.1575 14.9993 10.8668 14.9993 11.7368C14.9993 12.6069 14.2969 13.3161 13.4353 13.3161V13.3161ZM13.7115 15.908C12.6429 16.9841 10.5988 17.069 9.99854 17.069C9.39819 17.069 7.35107 16.9841 6.2854 15.908C6.12646 15.7473 6.12646 15.4897 6.2854 15.3289C6.44458 15.1683 6.69971 15.1683 6.85889 15.3289C7.53113 16.0081 8.96899 16.2506 9.99854 16.2506C11.0251 16.2506 12.4658 16.0081 13.1383 15.3289C13.2972 15.1683 13.5524 15.1683 13.7115 15.3289C13.8677 15.4897 13.8677 15.7473 13.7115 15.908ZM4.9917 11.7369C4.9917 10.8669 5.69409 10.1576 6.55566 10.1576C7.41711 10.1576 8.11951 10.8669 8.11951 11.7369C8.11951 12.6069 7.41711 13.3163 6.55566 13.3163C5.69409 13.3161 4.9917 12.6069 4.9917 11.7369V11.7369ZM20 10.1576C20 8.93594 19.0215 7.94775 17.8118 7.94775C17.2205 7.94775 16.686 8.18407 16.293 8.56919C14.7981 7.47794 12.7361 6.77465 10.4397 6.69279L11.4363 1.95478L14.6931 2.65511C14.7322 3.49179 15.4104 4.15872 16.248 4.15872C17.1124 4.15872 17.8119 3.45234 17.8119 2.5793C17.8119 1.70638 17.1124 1 16.248 1C15.6326 1 15.1073 1.36071 14.8522 1.88204L11.2141 1.09998C11.1121 1.07877 11.0071 1.09714 10.9199 1.15459C10.833 1.21216 10.7728 1.30006 10.752 1.40311C10.752 1.40311 9.6593 6.65951 9.6593 6.68984C7.32104 6.75036 5.21985 7.45674 3.70105 8.56315C3.30786 8.18124 2.77649 7.94775 2.18823 7.94775C0.978516 7.94775 0 8.9389 0 10.1576C0 11.0548 0.53125 11.8279 1.2937 12.1733C1.26074 12.3918 1.24268 12.6159 1.24268 12.8433C1.24268 16.2444 5.16284 19 9.99854 19C14.8341 19 18.7543 16.2444 18.7543 12.8433C18.7543 12.619 18.7363 12.3977 18.7034 12.1795C19.4628 11.8339 20 11.061 20 10.1576" fill="white"/>
</svg>
